<svg xmlns="http://www.w3.org/2000/svg" xmlns:xlink="http://www.w3.org/1999/xlink" version="1.1" id="Layer_1" x="0px" y="0px" viewBox="0 0 100 100" enable-background="new 0 0 100 100" xml:space="preserve" height="100px" width="100px">
<g>
	<path d="M27.2,85.1c1.5,1,3.5,0.6,4.5-0.9c0,0,6.6-12,9.5-16.7C44,63.1,77,14.3,77,14.3S39.5,64.7,38.6,65.8   c-3.1,4-12.1,14.7-12.1,14.7C25.4,82,25.7,84.1,27.2,85.1z M36.1,72.4c0.7,0.5-0.5,3.3-2.7,6.3c-2.1,3-4.4,5.1-5,4.7   c-0.7-0.5,0.5-3.3,2.7-6.3C33.2,74,35.5,72,36.1,72.4z"/>
	<path fill="none" stroke="#000000" stroke-miterlimit="10" d="M30.3,79.3C30.1,81,33,82.7,34.3,83c0.5,0.1,1.2,0,1.2-0.4   c0-0.1,0-0.3-0.1-0.4c-0.4-1-1.4-1.8-2.5-2c-1.5-0.3-3,0.5-4.5,0.7c-1.3,0.2-2.6,0.1-3.9-0.1c-5-0.6-10.2-1.2-14.4-4.1   c-2-1.4-3.7-3.2-5.2-5.1c0.1,0.2,0.3,0.3,0.4,0.5"/>
</g>
<g>
	<path d="M72.8,85.1c-1.5,1-3.5,0.6-4.5-0.9c0,0-6.6-12-9.5-16.7C56,63.1,23,14.3,23,14.3s37.4,50.4,38.3,51.5   c3.1,4,12.1,14.7,12.1,14.7C74.6,82,74.3,84.1,72.8,85.1z M63.9,72.4c-0.7,0.5,0.5,3.3,2.7,6.3c2.1,3,4.4,5.1,5,4.7   c0.7-0.5-0.5-3.3-2.7-6.3C66.8,74,64.5,72,63.9,72.4z"/>
	<path fill="none" stroke="#000000" stroke-miterlimit="10" d="M69.7,79.3c0.2,1.7-2.8,3.4-4.1,3.7c-0.5,0.1-1.2,0-1.2-0.4   c0-0.1,0-0.3,0.1-0.4c0.4-1,1.4-1.8,2.5-2c1.5-0.3,3,0.5,4.5,0.7c1.3,0.2,2.6,0.1,3.9-0.1c5-0.6,10.2-1.2,14.4-4.1   c2-1.4,3.7-3.2,5.2-5.1c-0.1,0.2-0.3,0.3-0.4,0.5"/>
</g>
</svg>